inDegrees=yes
name=ik_lifting_orientations
DataType=double
version=3
OpenSimVersion=4.5-2024-01-10-34fd6af
endheader
time	pelvis_tilt	pelvis_list	pelvis_rotation	pelvis_tx	pelvis_ty	pelvis_tz	hip_flexion_r	hip_adduction_r	hip_rotation_r	knee_angle_r	knee_angle_r_beta	ankle_angle_r	subtalar_angle_r	mtp_angle_r	hip_flexion_l	hip_adduction_l	hip_rotation_l	knee_angle_l	knee_angle_l_beta	ankle_angle_l	subtalar_angle_l	mtp_angle_l	lumbar_extension	lumbar_bending	lumbar_rotation	arm_flex_r	arm_add_r	arm_rot_r	elbow_flex_r	pro_sup_r	wrist_flex_r	wrist_dev_r	arm_flex_l	arm_add_l	arm_rot_l	elbow_flex_l	pro_sup_l	wrist_flex_l	wrist_dev_l
0.99	20.67253593261722	2.078292609648757	-144.9555382681552	0	0.9399999998679526	0	44.99618097557664	-10.08495088804311	0	59.99813701415889	1.047165035959752	-5.019088365905692	0	0	44.99618097557664	-10.08495088804311	0	59.99813701415889	1.047165035959752	-5.019088365905692	0	0	-52.79387682933449	-48.53648480927046	10.06581400447971	67.13632563680059	-10.88889910712354	16.26365814345364	4.968175313701434	1.325493588308114	0	0	0	-12.1025733770866	0	88.70066949416596	1.325493588308114	0	0
1	21.27241751337625	2.383946536058009	-144.2988182622934	0	0.9399999998679526	0	44.99618370767388	-10.08473800388164	0	59.99813813638436	1.047165055546282	-5.019025945173156	0	0	44.99618370767388	-10.08473800388164	0	59.99813813638436	1.047165055546282	-5.019025945173156	0	0	-53.61532657611012	-48.02863151047997	8.21198921508338	67.23261483004724	-10.52801849556105	17.17250206232273	5.301730238513662	1.324834298831804	0	0	0	-12.10363348715259	0	88.70131567868661	1.324834298831804	0	0
1.01	21.9423007956823	2.714707890725986	-143.699633860739	0	0.9399999998679526	0	44.99618693490752	-10.08448705150963	0	59.99813946228848	1.047165078687674	-5.018952425258518	0	0	44.99618693490752	-10.08448705150963	0	59.99813946228848	1.047165078687674	-5.018952425258518	0	0	-54.37622306359151	-47.58902561535286	6.345135804405509	67.424139667951	-10.19902182175694	17.9416507751527	5.841266151251801	1.324055323715544	0	0	0	-12.10488624971172	0	88.7020791698183	1.324055323715544	0	0
1.02	22.60839115338335	3.115954503124791	-142.8953623429676	0	0.9399999998679526	0	44.99619170536063	-10.08411859426206	0	59.99814142638558	1.047165112967635	-5.018844732938637	0	0	44.99619170536063	-10.08411859426206	0	59.99814142638558	1.047165112967635	-5.018844732938637	0	0	-54.98971854632578	-46.79472718253327	4.661180224884642	67.52289113546435	-10.13440582034759	18.54647630016222	6.819098217705268	1.322902534207635	0	0	0	-12.10674165955775	0	88.70320904493913	1.322902534207635	0	0
1.03	23.06887902834354	3.438714749234531	-142.3199471961946	0	0.9399999998679526	0	44.9961955042883	-10.08382904352647	0	59.99814300241012	1.047165140474453	-5.018760399278112	0	0	44.9961955042883	-10.08382904352647	0	59.99814300241012	1.047165140474453	-5.018760399278112	0	0	-55.18696406309619	-46.27533219332151	3.785576997444475	67.4648518723676	-10.37209324980764	18.47421109318752	7.542860548067132	1.321981521063754	0	0	0	-12.10822789957222	0	88.70411175090109	1.321981521063754	0	0
1.04	23.55031750455647	3.683701497813714	-141.9008488576553	0	0.9399999998679526	0	44.99620129052564	-10.08338582305247	0	59.99814538861114	1.047165182121517	-5.018631270558934	0	0	44.99620129052564	-10.08338582305247	0	59.99814538861114	1.047165182121517	-5.018631270558934	0	0	-55.65862166738845	-45.79507945947615	2.647090571233255	67.55518780221429	-10.83182160562262	18.81131559882575	8.581665203139812	1.320581562272625	0	0	0	-12.11048293988263	0	88.7054838823092	1.320581562272625	0	0
1.05	24.02198981235037	3.954489954999136	-141.5013939251349	0	0.9399999998679526	0	44.99620604109132	-10.08302267079001	0	59.99814734649803	1.04716521629309	-5.018525587695666	0	0	44.99620604109132	-10.08302267079001	0	59.99814734649803	1.04716521629309	-5.018525587695666	0	0	-56.04282212010784	-45.36860629615872	1.757028005849294	67.41847552103424	-11.61410874411637	19.18574209823716	9.872646571328291	1.319432126344855	0	0	0	-12.11233434520172	0	88.70661047057678	1.319432126344855	0	0
1.06	24.38996074665926	4.078351208728179	-141.2999476418457	0	0.9399999998679526	0	44.99620865313496	-10.08282246086335	0	59.99814842092535	1.047165235045384	-5.01846729256677	0	0	44.99620865313496	-10.08282246086335	0	59.99814842092535	1.047165235045384	-5.01846729256677	0	0	-56.54229472848552	-45.13559383586315	0.8845438264720836	67.26288165553173	-12.34775170935886	19.83531528835437	10.95871884563429	1.318800544372388	0	0	0	-12.11335112472255	0	88.70722949840689	1.318800544372388	0	0
1.07	24.73950517546422	4.103620637530509	-141.5656658857827	0	0.9399999998679526	0	44.99621168631185	-10.08259045965892	0	59.99814966888167	1.047165256826331	-5.018399800042949	0	0	44.99621168631185	-10.08259045965892	0	59.99814966888167	1.047165256826331	-5.018399800042949	0	0	-57.01604638579156	-45.32794059517349	0.1058155910863045	68.13983269518587	-12.60912636655298	20.60041818113946	10.92243938487516	1.318066936009326	0	0	0	-12.11453235441138	0	88.70794852462794	1.318066936009326	0	0
1.08	25.0793483608735	4.120574300318044	-141.8208478654155	0	0.9399999998679526	0	44.99621409317024	-10.08240700573651	0	59.99815066065557	1.047165274136051	-5.018346488778176	0	0	44.99621409317024	-10.08240700573651	0	59.99815066065557	1.047165274136051	-5.018346488778176	0	0	-57.37021276273182	-45.49745772568174	-0.7083207520090321	69.50069114314407	-12.42472669674086	21.67723851474198	10.22873222084056	1.317484379786313	0	0	0	-12.11547090163461	0	88.70851950123152	1.317484379786313	0	0
1.09	25.51099714267916	4.218862023588334	-141.7719608051769	0	0.9399999998679526	0	44.99621616439284	-10.08224920808784	0	59.9981515136954	1.047165289024405	-5.018300650741621	0	0	44.99621616439284	-10.08224920808784	0	59.9981515136954	1.047165289024405	-5.018300650741621	0	0	-57.53434452565587	-45.44843291122447	-1.014839212152935	70.11121752010784	-12.65519591792892	22.08708217647283	10.32336926137812	1.316983098191439	0	0	0	-12.11627843233796	0	88.70901081872368	1.316983098191439	0	0
1.1	25.79030165980169	4.454373761560118	-141.3333168952022	0	0.9399999998679526	0	44.99621802074705	-10.08210968670422	0	59.99815228604928	1.047165302504523	-5.018260237036343	0	0	44.99621802074705	-10.08210968670422	0	59.99815228604928	1.047165302504523	-5.018260237036343	0	0	-57.76229297916613	-45.00234965263551	-1.36398098673909	70.79229981396523	-12.85197236261761	21.89578496773464	9.849309258848919	1.316532008861166	0	0	0	-12.11700757561416	0	88.70945294169974	1.316532008861166	0	0
1.11	26.02020103877095	4.671495769628324	-140.9224120914767	0	0.9399999998679526	0	44.99621908501836	-10.08202924021238	0	59.99815272647503	1.047165310191402	-5.018236915520919	0	0	44.99621908501836	-10.08202924021238	0	59.99815272647503	1.047165310191402	-5.018236915520919	0	0	-57.91234570395957	-44.68035076677226	-1.317310873847012	71.27329589797583	-13.20918562543067	21.64184615251094	9.714426002154966	1.31627390644885	0	0	0	-12.11742405528288	0	88.70970591376337	1.31627390644885	0	0
1.12	26.15373452412562	4.738730427550471	-140.7678565673882	0	0.9399999998679526	0	44.9962219466121	-10.08181184457316	0	59.99815390470452	1.047165330755386	-5.018173851953974	0	0	44.9962219466121	-10.08181184457316	0	59.99815390470452	1.047165330755386	-5.018173851953974	0	0	-58.4868104181848	-44.61161663722861	-1.465957901704769	72.16321201549499	-13.59183403382493	21.79237796382044	9.49195059303767	1.315581193036451	0	0	0	-12.1185400470516	0	88.71038485794256	1.315581193036451	0	0
1.13	26.33565929036474	4.684104148091524	-140.9749466540633	0	0.9399999998679526	0	44.99622536363942	-10.08155258012085	0	59.99815531097128	1.047165355299371	-5.018098697441742	0	0	44.99622536363942	-10.08155258012085	0	59.99815531097128	1.047165355299371	-5.018098697441742	0	0	-59.00283246201955	-44.94238106656414	-1.465587804753382	73.60939127285697	-13.62867629070213	22.34819466302103	8.253386600150902	1.314754023416615	0	0	0	-12.11987257087049	0	88.71119558571303	1.314754023416615	0	0
1.14	26.61399555107209	4.75569022157635	-140.9332911722447	0	0.9399999998679526	0	44.9962283006622	-10.08133013329965	0	59.99815651960318	1.047165376393977	-5.018034269534598	0	0	44.9962283006622	-10.08133013329965	0	59.99815651960318	1.047165376393977	-5.018034269534598	0	0	-59.39462931550342	-44.91564339111672	-1.588741098700315	75.03034094171629	-13.675762007946	23.45613552084277	7.525840818262846	1.314042937867308	0	0	0	-12.12101817082459	0	88.71189253685012	1.314042937867308	0	0
1.15	26.89305213032737	4.804870127826402	-140.8675148643387	0	0.9399999998679526	0	44.99623139656025	-10.08109639316211	0	59.99815779501402	1.047165398654096	-5.017966643908745	0	0	44.99623139656025	-10.08109639316211	0	59.99815779501402	1.047165398654096	-5.017966643908745	0	0	-59.94365838298899	-44.93799541746273	-2.008716225086845	76.18407199460947	-13.48165796622262	23.57334713656893	6.93169913386061	1.313292936484951	0	0	0	-12.12222701119045	0	88.71262763029914	1.313292936484951	0	0
1.16	27.14315490876752	4.988143983201319	-140.4266207425414	0	0.9399999998679526	0	44.99623465095615	-10.0808516781158	0	59.99815913807643	1.047165422094957	-5.017895932812133	0	0	44.99623465095615	-10.0808516781158	0	59.99815913807643	1.047165422094957	-5.017895932812133	0	0	-60.57430052294808	-44.51026243401235	-2.704461758996	77.2633494016242	-13.36134932558352	23.63072699239683	6.548516516596819	1.312503858319298	0	0	0	-12.12349968834557	0	88.71340102382017	1.312503858319298	0	0
1.17	27.38985882889034	5.26231354970566	-139.9052696857451	0	0.9399999998679526	0	44.99623743592117	-10.08064272215691	0	59.99816028772465	1.047165442160104	-5.017835609338518	0	0	44.99623743592117	-10.08064272215691	0	59.99816028772465	1.047165442160104	-5.017835609338518	0	0	-60.92063208050761	-43.8901096090675	-3.250654918070779	78.03987967997243	-13.40368486269682	23.86081994744513	6.605655416701813	1.31182840603011	0	0	0	-12.12458930021878	0	88.71406305003489	1.31182840603011	0	0
1.18	27.63028823700938	5.509870232090919	-139.3555939314618	0	0.9399999998679526	0	44.99624068032018	-10.08039965691675	0	59.99816162671461	1.047165465529887	-5.017765491715865	0	0	44.99624068032018	-10.08039965691675	0	59.99816162671461	1.047165465529887	-5.017765491715865	0	0	-61.14512293039927	-43.30253701758687	-3.831927320712921	78.82419882201317	-13.25840169443522	24.08199117785596	6.385115014742963	1.311041457853013	0	0	0	-12.12585878745334	0	88.71483435592035	1.311041457853013	0	0
